<svg width="158" height="39" viewBox="0 0 158 39" fill="none" xmlns="http://www.w3.org/2000/svg">
<g clip-path="url(#clip0_20_14)">
<path d="M34.1874 16.3385V21.6348C34.1874 23.9814 34.1858 25.6415 34.078 26.9385C33.9718 28.2154 33.7706 28.9935 33.4525 29.6036C32.8336 30.7922 31.8622 31.7617 30.6703 32.3791C30.0587 32.6964 29.2787 32.8972 27.9987 33.0031C26.6986 33.1106 25.0345 33.1123 22.6824 33.1123H17.7839C15.4317 33.1123 13.7677 33.1106 12.4678 33.0031C11.1874 32.8972 10.4077 32.6964 9.796 32.3791C8.60432 31.7617 7.63267 30.7922 7.01363 29.6036C6.69586 28.9935 6.49465 28.2154 6.38829 26.9385C6.28037 25.6415 6.27901 23.9814 6.27901 21.6348V16.7483C6.27901 14.4017 6.28037 12.7418 6.38829 11.4449C6.49465 10.1677 6.69586 9.38985 7.01363 8.77958C7.63267 7.59078 8.60432 6.62147 9.796 6.00392C10.4077 5.68691 11.1874 5.48619 12.4678 5.38012C13.7677 5.27242 15.4316 5.27111 17.7839 5.27111H23.0931C23.1405 4.12455 23.37 3.02484 23.7532 2H17.711C15.4481 1.99996 13.648 1.99996 12.1964 2.12022C10.7097 2.24337 9.44223 2.50114 8.28446 3.1011C6.49387 4.02899 5.03393 5.48545 4.1038 7.27173C3.50239 8.42667 3.244 9.69104 3.12055 11.1742C3 12.6223 3 14.418 3 16.6755V21.7075C3 23.965 3 25.7609 3.12055 27.2091C3.244 28.6922 3.50239 29.9565 4.1038 31.1116C5.03393 32.8976 6.49387 34.3541 8.28446 35.2822C9.44223 35.8821 10.7097 36.1397 12.1964 36.2632C13.648 36.3834 15.448 36.3834 17.7109 36.3834H22.7553C25.0181 36.3834 26.8183 36.3834 28.27 36.2632C29.7567 36.1397 31.024 35.8821 32.1819 35.2822C33.9722 34.3541 35.4322 32.8976 36.3626 31.1116C36.9639 29.9565 37.2221 28.6922 37.3459 27.2091C37.4664 25.7609 37.4664 23.965 37.4664 21.708V15.6799C36.4389 16.0623 35.3367 16.2912 34.1874 16.3385Z" fill="white"/>
<path d="M61.1911 16.3C61.1911 17.3042 60.9485 18.2457 60.4632 19.1246C59.9959 20.0033 59.25 20.7115 58.2253 21.2496C57.2186 21.7872 55.9423 22.0563 54.3962 22.0563H51.2414V29.2654H47.4664V10.4898H54.3962C55.8525 10.4898 57.0928 10.7409 58.1175 11.243C59.1418 11.7451 59.9058 12.4355 60.4091 13.3142C60.9305 14.1929 61.1911 15.1881 61.1911 16.3ZM54.2343 19.0168C55.277 19.0168 56.0501 18.7837 56.5534 18.3174C57.0567 17.8332 57.3084 17.1607 57.3084 16.3C57.3084 14.4708 56.2837 13.5563 54.2343 13.5563H51.2414V19.0168H54.2343Z" fill="white"/>
<path d="M66.9661 16.6766C67.4514 15.8875 68.0806 15.2689 68.8536 14.8205C69.6443 14.3722 70.5431 14.1481 71.5498 14.1481V18.1022H70.5521C69.366 18.1022 68.4671 18.3802 67.856 18.9361C67.2625 19.4922 66.9661 20.4604 66.9661 21.8412V29.2654H63.1912V14.3633H66.9661V16.6766Z" fill="white"/>
<path d="M81.1264 29.2654C79.6885 29.2654 78.3941 28.9514 77.2436 28.3237C76.0931 27.6781 75.1856 26.7728 74.5204 25.6071C73.8732 24.4413 73.5498 23.0965 73.5498 21.5722C73.5498 20.0478 73.8822 18.703 74.5474 17.5374C75.2303 16.3718 76.1562 15.4751 77.3248 14.8475C78.4929 14.2019 79.7963 13.8791 81.2346 13.8791C82.6724 13.8791 83.9758 14.2019 85.1444 14.8475C86.3125 15.4751 87.2294 16.3718 87.8947 17.5374C88.5775 18.703 88.9194 20.0478 88.9194 21.5722C88.9194 23.0965 88.5685 24.4413 87.8676 25.6071C87.1844 26.7728 86.2498 27.6781 85.0632 28.3237C83.8947 28.9514 82.5827 29.2654 81.1264 29.2654ZM81.1264 25.9837C81.8096 25.9837 82.4478 25.8222 83.0409 25.4995C83.652 25.1589 84.1377 24.6568 84.4972 23.9932C84.8567 23.3296 85.0362 22.5228 85.0362 21.5722C85.0362 20.1554 84.6587 19.0706 83.9037 18.3174C83.1667 17.5463 82.2589 17.1608 81.1805 17.1608C80.1021 17.1608 79.1942 17.5463 78.4573 18.3174C77.7379 19.0706 77.3785 20.1554 77.3785 21.5722C77.3785 22.989 77.7289 24.0827 78.4302 24.8539C79.1491 25.6071 80.048 25.9837 81.1264 25.9837Z" fill="white"/>
<path d="M90.9193 21.5186C90.9193 20.0123 91.2157 18.6761 91.8092 17.5105C92.4203 16.3448 93.247 15.4482 94.2897 14.8205C95.3325 14.1929 96.4916 13.8791 97.7679 13.8791C98.7389 13.8791 99.6644 14.0943 100.545 14.5247C101.426 14.9371 102.127 15.4931 102.648 16.1924V9.11798H106.477V29.0233H102.648V26.8174C102.181 27.5526 101.525 28.1446 100.68 28.5928C99.8354 29.0413 98.8558 29.2654 97.7409 29.2654C96.4826 29.2654 95.3325 28.9424 94.2897 28.2972C93.247 27.6515 92.4203 26.7458 91.8092 25.5801C91.2157 24.3968 90.9193 23.0425 90.9193 21.5186ZM102.675 21.5722C102.675 20.6575 102.496 19.8777 102.136 19.2321C101.777 18.5685 101.291 18.0664 100.68 17.7257C100.069 17.367 99.4128 17.1877 98.7119 17.1877C98.0106 17.1877 97.3634 17.358 96.7703 17.6988C96.1772 18.0395 95.6919 18.5416 95.3144 19.2051C94.955 19.8507 94.775 20.6219 94.775 21.5186C94.775 22.4149 94.955 23.204 95.3144 23.8857C95.6919 24.5489 96.1772 25.06 96.7703 25.4186C97.3814 25.7776 98.0286 25.9567 98.7119 25.9567C99.4128 25.9567 100.069 25.7866 100.68 25.4456C101.291 25.087 101.777 24.5849 102.136 23.9392C102.496 23.276 102.675 22.4868 102.675 21.5722Z" fill="white"/>
<path d="M122.714 14.1752V29.0773H118.912V27.1944C118.427 27.84 117.789 28.3511 116.998 28.7277C116.225 29.0863 115.38 29.2654 114.463 29.2654C113.295 29.2654 112.261 29.0234 111.363 28.5392C110.464 28.0371 109.754 27.3109 109.232 26.3603C108.729 25.392 108.477 24.2443 108.477 22.9174V14.1752H112.252V22.3793C112.252 23.5631 112.549 24.4773 113.142 25.123C113.735 25.7506 114.544 26.0646 115.569 26.0646C116.611 26.0646 117.43 25.7506 118.023 25.123C118.616 24.4773 118.912 23.5631 118.912 22.3793V14.1752H122.714Z" fill="white"/>
<path d="M124.714 21.5722C124.714 20.0298 125.029 18.685 125.658 17.5374C126.288 16.3718 127.159 15.4751 128.274 14.8475C129.388 14.2019 130.665 13.8791 132.102 13.8791C133.954 13.8791 135.482 14.3453 136.687 15.2779C137.909 16.1924 138.727 17.4836 139.14 19.1511H135.069C134.853 18.5057 134.484 18.0036 133.963 17.645C133.46 17.2684 132.831 17.0801 132.076 17.0801C130.997 17.0801 130.143 17.4746 129.514 18.2636C128.885 19.0346 128.57 20.1378 128.57 21.5722C128.57 22.989 128.885 24.0917 129.514 24.8809C130.143 25.6521 130.997 26.0376 132.076 26.0376C133.603 26.0376 134.601 25.356 135.069 23.9932H139.14C138.727 25.6071 137.909 26.8894 136.687 27.8396C135.464 28.7903 133.936 29.2654 132.102 29.2654C130.665 29.2654 129.388 28.9514 128.274 28.3237C127.159 27.6781 126.288 26.7818 125.658 25.6341C125.029 24.4683 124.714 23.1145 124.714 21.5722Z" fill="white"/>
<path d="M146.721 17.4566V24.6654C146.721 25.1675 146.838 25.5351 147.072 25.7686C147.324 25.9837 147.737 26.0912 148.313 26.0912H150.065V29.2654H147.692C144.511 29.2654 142.919 27.7231 142.919 24.6388V17.4566H141.14V14.3633H142.919V10.6781H146.721V14.3633H150.065V17.4566H146.721Z" fill="white"/>
<path d="M25 7.16829C25 3.10348 28.3032 -0.191711 32.3778 -0.191711C36.4524 -0.191711 39.7556 3.10348 39.7556 7.16829C39.7556 11.2331 36.4524 14.5283 32.3778 14.5283C28.3032 14.5283 25 11.2331 25 7.16829Z" fill="#7214FF"/>
<path d="M154.346 29.6032C153.663 29.6032 153.096 29.3967 152.647 28.9846C152.216 28.554 152 28.0249 152 27.3973C152 26.7696 152.216 26.2495 152.647 25.8373C153.096 25.4068 153.663 25.1917 154.346 25.1917C155.011 25.1917 155.559 25.4068 155.991 25.8373C156.422 26.2495 156.638 26.7696 156.638 27.3973C156.638 28.0249 156.422 28.554 155.991 28.9846C155.559 29.3967 155.011 29.6032 154.346 29.6032Z" fill="#7214FF"/>
</g>
<defs>
<clipPath id="clip0_20_14">
<rect width="158" height="38.3834" fill="white"/>
</clipPath>
</defs>
</svg>
