<svg width="43" height="30" viewBox="0 0 43 30" fill="none" xmlns="http://www.w3.org/2000/svg">
<path d="M2.15827 0.358673C2.69159 0.133679 3.25825 -0.00798447 3.83323 0.000348656C15.4996 0.000348656 27.166 0.000348656 38.8324 0.000348656C39.4074 -0.00798447 39.9823 0.133679 40.5073 0.367006C37.6657 3.2336 34.7825 6.06687 31.9242 8.92513C29.4993 11.3334 27.0743 13.75 24.6577 16.1583C24.3577 16.4416 24.0827 16.7583 23.7577 17.0166C22.7994 17.8666 21.3828 18.1416 20.1662 17.7332C19.5578 17.5499 19.0329 17.1749 18.5829 16.7416C13.2247 11.4084 7.86647 6.0752 2.49993 0.741997C2.38327 0.617 2.25827 0.500336 2.15827 0.358673Z" fill="#B756FE"/>
<path d="M0.366658 2.15028C4.69155 6.42517 8.99978 10.7167 13.3163 15C8.99978 19.2832 4.69155 23.5748 0.366658 27.8497C0.166663 27.3913 0.0333325 26.8997 0 26.3914V3.60857C0.0333325 3.10025 0.166663 2.6086 0.366658 2.15028Z" fill="#F6F6F7"/>
<path d="M29.3493 15C33.6658 10.7167 37.9657 6.41684 42.2989 2.15028C42.4989 2.6086 42.6406 3.10025 42.6656 3.60857V26.3997C42.6323 26.8997 42.4989 27.3997 42.2989 27.858C37.974 23.5748 33.6658 19.2832 29.3493 15Z" fill="#F6F6F7"/>
<path d="M5.14153 26.6414C8.45812 23.3498 11.7664 20.0582 15.083 16.7666C15.7246 17.3999 16.3496 18.0416 16.9912 18.6666C17.9246 19.5749 19.1495 20.1749 20.4328 20.3582C22.2578 20.6332 24.1911 20.0499 25.541 18.7916C26.241 18.1333 26.8993 17.4416 27.5827 16.7666C30.2409 19.4082 32.8992 22.0498 35.5575 24.6914C37.2074 26.3414 38.8824 27.9663 40.5157 29.633C39.9907 29.8663 39.4157 30.008 38.8407 29.9996C27.1743 29.9996 15.5079 29.9996 3.84156 29.9996C3.25825 30.008 2.69159 29.8663 2.15827 29.633C3.12492 28.6163 4.14989 27.6414 5.14153 26.6414Z" fill="#F6F6F7"/>
</svg>
