<svg width="48" height="45" viewBox="0 0 48 45" fill="none" xmlns="http://www.w3.org/2000/svg">
<path d="M23.6055 0.0537603C24.4295 -0.199056 25.3472 0.47512 25.3753 1.33657C25.3846 2.90028 25.3753 4.464 25.3753 6.03707C25.394 6.68316 24.8977 7.30115 24.261 7.42288C23.4557 7.61951 22.5943 6.9547 22.5756 6.13071C22.5662 4.56699 22.5756 3.00328 22.5662 1.43957C22.5475 0.802845 22.9969 0.212941 23.6055 0.0537603Z" fill="#DF2DB1"/>
<path d="M13.315 3.331C13.7925 3.19991 14.3356 3.34973 14.6821 3.70554C15.8993 4.9228 17.1166 6.14007 18.3339 7.34796C18.7178 7.69442 18.9144 8.2375 18.7927 8.74313C18.6803 9.28622 18.2121 9.71694 17.6691 9.81058C17.229 9.88549 16.7608 9.74504 16.4424 9.43604C15.2064 8.20005 13.9798 6.96406 12.7438 5.73743C12.4161 5.42844 12.2288 4.96962 12.285 4.52017C12.3412 3.95836 12.7626 3.46209 13.315 3.331Z" fill="#DF2DB1"/>
<path d="M33.9054 3.33101C34.5141 3.16247 35.2257 3.45274 35.5066 4.03328C35.7969 4.567 35.6845 5.26927 35.2444 5.69063C33.9991 6.93598 32.7537 8.1907 31.499 9.43605C30.9934 9.94169 30.1132 9.96978 29.5888 9.48287C28.9989 8.9866 28.9615 7.99407 29.5233 7.45098C30.7686 6.20563 32.014 4.96027 33.2594 3.70556C33.4373 3.52765 33.662 3.39656 33.9054 3.33101Z" fill="#DF2DB1"/>
<path d="M13.5772 14.5673C14.963 13.4156 16.742 12.7695 18.5398 12.7601C21.3208 12.7601 24.1018 12.7601 26.8734 12.7601C28.0439 12.7227 29.2237 13.0129 30.2068 13.659C30.7686 14.0148 31.2368 14.5017 31.705 14.9699C33.2313 16.4962 34.7669 18.0318 36.2931 19.5581C36.6583 19.9139 37.0235 20.2978 37.2295 20.7753C37.8381 22.0488 37.4636 23.7061 36.3493 24.5769C35.1508 25.5788 33.2313 25.4665 32.1264 24.3897C30.7874 23.0694 29.4765 21.7304 28.1469 20.4101C27.8659 20.1292 27.4727 19.9794 27.0794 19.9794C23.5493 19.9701 20.0193 19.9794 16.4892 19.9794C14.963 21.2622 13.4367 22.545 11.9011 23.8278C11.3299 24.3147 10.7306 24.7642 10.2718 25.3635C8.96092 27.0115 8.64256 29.3804 9.45719 31.3187C10.1033 32.9105 11.4797 34.1746 13.109 34.7083C13.2494 35.5604 13.5491 36.3844 14.0079 37.1147C13.2775 37.0679 12.4067 37.302 11.8074 36.7496C10.6651 35.6353 9.55083 34.4929 8.41784 33.3693C6.26422 33.3599 4.11996 33.3693 1.96635 33.3693C1.58244 33.3693 1.17044 33.4068 0.805266 33.2289C0.365179 33.0135 0.084272 32.5828 0 32.1146V16.8145C0.084272 16.1216 0.702267 15.5505 1.40453 15.5598C5.1125 15.5598 8.82047 15.5598 12.5284 15.5598C12.8655 15.2227 13.2026 14.8763 13.5772 14.5673Z" fill="#F6F6F7"/>
<path d="M39.1022 18.4719C41.5836 18.4719 44.0555 18.4719 46.5369 18.4719C47.2204 18.4531 47.8103 19.0056 47.9414 19.6704V35.0173C47.8478 35.7008 47.2391 36.272 46.5462 36.2626C44.6735 36.272 42.8008 36.2626 40.9281 36.2626C40.7408 36.272 40.5068 36.2158 40.3663 36.375C37.2482 38.9968 34.1208 41.6092 31.0027 44.231C30.2349 44.8958 29.1488 45.158 28.1656 44.9052C26.9577 44.6149 25.9932 43.5662 25.8153 42.3396C25.6468 41.3938 25.9839 40.4107 26.6019 39.6897C25.9839 40.1766 25.394 40.7009 24.7853 41.1972C24.0831 41.8058 23.1093 42.0774 22.201 41.9182C20.9744 41.7309 19.935 40.7478 19.6541 39.5492C19.3826 38.4818 19.729 37.302 20.5156 36.5435C19.832 36.993 18.9893 37.2271 18.1653 37.0866C16.8919 36.8993 15.8057 35.86 15.5622 34.5865C15.3469 33.5378 15.7121 32.4048 16.4799 31.6745C15.6746 32.2363 14.6259 32.4517 13.6802 32.152C12.4161 31.7868 11.4704 30.5696 11.4329 29.2587C11.3861 28.2755 11.8355 27.2923 12.6034 26.6743C14.1577 25.3915 15.6746 24.0713 17.2383 22.8072C20.347 22.7978 23.4557 22.7978 26.5644 22.8072C27.5382 23.7997 28.5308 24.7829 29.5139 25.7661C29.9259 26.1687 30.3098 26.5994 30.778 26.9365C31.8548 27.7418 33.2125 28.1538 34.5609 28.0976C35.8343 28.0601 37.0797 27.592 38.0722 26.7961C39.2708 25.841 40.0854 24.399 40.2727 22.8727C40.4787 21.3184 40.0386 19.7172 39.1022 18.4719Z" fill="#F6F6F7"/>
</svg>
