<svg width="20" height="20" viewBox="0 0 20 20" fill="none" xmlns="http://www.w3.org/2000/svg">
<path fill-rule="evenodd" clip-rule="evenodd" d="M13.1612 0.833313C13.5062 0.833313 13.7862 1.11331 13.7862 1.45831L13.7866 2.16482C15.0034 2.24824 16.0139 2.66502 16.7292 3.38173C17.51 4.1659 17.9208 5.2934 17.9167 6.6459V14.2484C17.9167 17.0251 16.1533 18.7501 13.3158 18.7501H6.26749C3.42999 18.7501 1.66666 17.0009 1.66666 14.1851V6.64423C1.66666 4.02522 3.2392 2.3441 5.80389 2.16511L5.80441 1.45831C5.80441 1.11331 6.08441 0.833313 6.42941 0.833313C6.77441 0.833313 7.05441 1.11331 7.05441 1.45831L7.05416 2.14915H12.5358L12.5362 1.45831C12.5362 1.11331 12.8162 0.833313 13.1612 0.833313ZM16.6667 8.25331H2.91666V14.1851C2.91666 16.3234 4.10666 17.5001 6.26749 17.5001H13.3158C15.4767 17.5001 16.6667 16.3451 16.6667 14.2484L16.6667 8.25331ZM13.501 13.4969C13.846 13.4969 14.126 13.7769 14.126 14.1219C14.126 14.4669 13.846 14.7469 13.501 14.7469C13.156 14.7469 12.8727 14.4669 12.8727 14.1219C12.8727 13.7769 13.1485 13.4969 13.4935 13.4969H13.501ZM9.80307 13.4969C10.1481 13.4969 10.4281 13.7769 10.4281 14.1219C10.4281 14.4669 10.1481 14.7469 9.80307 14.7469C9.45807 14.7469 9.17474 14.4669 9.17474 14.1219C9.17474 13.7769 9.45057 13.4969 9.79557 13.4969H9.80307ZM6.09741 13.4969C6.44241 13.4969 6.72241 13.7769 6.72241 14.1219C6.72241 14.4669 6.44241 14.7469 6.09741 14.7469C5.75241 14.7469 5.46824 14.4669 5.46824 14.1219C5.46824 13.7769 5.74491 13.4969 6.08991 13.4969H6.09741ZM13.501 10.258C13.846 10.258 14.126 10.538 14.126 10.883C14.126 11.228 13.846 11.508 13.501 11.508C13.156 11.508 12.8727 11.228 12.8727 10.883C12.8727 10.538 13.1485 10.258 13.4935 10.258H13.501ZM9.80307 10.258C10.1481 10.258 10.4281 10.538 10.4281 10.883C10.4281 11.228 10.1481 11.508 9.80307 11.508C9.45807 11.508 9.17474 11.228 9.17474 10.883C9.17474 10.538 9.45057 10.258 9.79557 10.258H9.80307ZM6.09741 10.258C6.44241 10.258 6.72241 10.538 6.72241 10.883C6.72241 11.228 6.44241 11.508 6.09741 11.508C5.75241 11.508 5.46824 11.228 5.46824 10.883C5.46824 10.538 5.74491 10.258 6.08991 10.258H6.09741ZM12.5358 3.39915H7.05416L7.05441 4.20081C7.05441 4.54581 6.77441 4.82581 6.42941 4.82581C6.08441 4.82581 5.80441 4.54581 5.80441 4.20081L5.80396 3.41807C3.9371 3.57489 2.91666 4.70653 2.91666 6.64423V7.00331H16.6667L16.6667 6.64423C16.67 5.61506 16.3933 4.81506 15.8442 4.26506C15.3621 3.78157 14.6574 3.49281 13.7869 3.41846L13.7862 4.20081C13.7862 4.54581 13.5062 4.82581 13.1612 4.82581C12.8162 4.82581 12.5362 4.54581 12.5362 4.20081L12.5358 3.39915Z" fill="#8F9BB7"/>
</svg>
