<svg width="15" height="17" viewBox="0 0 15 17" fill="none" xmlns="http://www.w3.org/2000/svg">
<path d="M10.9925 0C13.5667 0 15 1.48333 15 4.025V12.6333C15 15.2167 13.5667 16.6667 10.9925 16.6667H4.00833C1.475 16.6667 0 15.2167 0 12.6333V4.025C0 1.48333 1.475 0 4.00833 0H10.9925ZM4.23333 11.45C3.98333 11.425 3.74167 11.5417 3.60833 11.7583C3.475 11.9667 3.475 12.2417 3.60833 12.4583C3.74167 12.6667 3.98333 12.7917 4.23333 12.7583H10.7667C11.0992 12.725 11.35 12.4408 11.35 12.1083C11.35 11.7667 11.0992 11.4833 10.7667 11.45H4.23333ZM10.7667 7.64917H4.23333C3.87417 7.64917 3.58333 7.94167 3.58333 8.3C3.58333 8.65833 3.87417 8.95 4.23333 8.95H10.7667C11.125 8.95 11.4167 8.65833 11.4167 8.3C11.4167 7.94167 11.125 7.64917 10.7667 7.64917ZM6.72417 3.875H4.23333V3.88333C3.87417 3.88333 3.58333 4.175 3.58333 4.53333C3.58333 4.89167 3.87417 5.18333 4.23333 5.18333H6.72417C7.08333 5.18333 7.375 4.89167 7.375 4.52417C7.375 4.16667 7.08333 3.875 6.72417 3.875Z" fill="#32CAFD"/>
</svg>
