<svg width="17" height="17" viewBox="0 0 17 17" fill="none" xmlns="http://www.w3.org/2000/svg">
<path d="M5.99238 0.000140201C6.78372 -0.00821457 7.52235 0.357278 8.00684 0.977766L8.75483 1.97225C8.99282 2.26974 9.34982 2.44824 9.73231 2.44824H12.3418C15.4782 2.44824 17.0082 4.1227 16.9997 7.55664V11.6961C16.9997 14.977 14.9767 17 11.6873 17H5.3039C2.03146 17 0 14.977 0 11.6876V5.30418C0 1.78525 1.56397 0.000140201 4.64941 0.000140201H5.99238ZM12.4353 10.0216H4.56441C4.20742 10.0216 3.92692 10.3021 3.92692 10.6591C3.92692 11.0076 4.20742 11.2966 4.56441 11.2966H12.4353C12.7837 11.2966 13.0642 11.0076 13.0642 10.6591C13.0642 10.3021 12.7837 10.0216 12.4353 10.0216Z" fill="#B756FE"/>
</svg>
