<svg width="17" height="14" viewBox="0 0 17 14" fill="none" xmlns="http://www.w3.org/2000/svg">
<path d="M8.87073 0C9.14694 0 9.37136 0.218015 9.37136 0.48714V2.53153C9.37136 2.85895 9.65086 3.13047 9.9879 3.13047C10.3332 3.13047 10.6044 2.85895 10.6044 2.53153V0.48714C10.6044 0.218015 10.8289 0 11.1059 0H13.7858C15.5614 0 17 1.39753 17 3.12249V5.13493C17 5.29465 16.9342 5.44638 16.8191 5.55818C16.704 5.66999 16.5479 5.73387 16.3834 5.73387C15.7751 5.73387 15.2819 6.21303 15.2819 6.796C15.2819 7.38296 15.7694 7.85972 16.3719 7.86611C16.7114 7.8693 17 8.0993 17 8.42911V10.4775C17 12.2017 15.5614 13.6 13.7858 13.6H11.1059C10.8289 13.6 10.6044 13.382 10.6044 13.1128V11.3879C10.6044 11.0525 10.3332 10.7889 9.9879 10.7889C9.65086 10.7889 9.37136 11.0525 9.37136 11.3879V13.1128C9.37136 13.382 9.14694 13.6 8.87073 13.6H3.21421C1.44681 13.6 0 12.2025 0 10.4775V8.42911C0 8.0993 0.288539 7.8693 0.628046 7.86611C1.23143 7.85972 1.71808 7.38296 1.71808 6.796C1.71808 6.229 1.24129 5.79776 0.616537 5.79776C0.452127 5.79776 0.295938 5.73387 0.180851 5.62207C0.0657639 5.51027 0 5.35854 0 5.19882V3.13047C0 1.40871 1.45009 0 3.22243 0H8.87073ZM9.9879 4.84744C9.65086 4.84744 9.37136 5.11896 9.37136 5.44638V8.64074C9.37136 8.96816 9.65086 9.23968 9.9879 9.23968C10.3332 9.23968 10.6044 8.96816 10.6044 8.64074V5.44638C10.6044 5.11896 10.3332 4.84744 9.9879 4.84744Z" fill="#2D55FB"/>
</svg>
