<svg width="130" height="56" viewBox="0 0 130 56" fill="none" xmlns="http://www.w3.org/2000/svg">
<path d="M0.53258 36.1183C4.43055 39.5332 13.2713 44.3895 19.7289 42.7407C29.0113 40.3707 35.8431 33.1571 42.5774 19.9116C47.8541 9.53304 52.0146 6.36539 62.2181 7.12052C78.0232 8.29021 83.3807 14.2085 86.475 18.6789C89.5692 23.1493 90.2317 29.1202 99.6694 31.3552C109.107 33.5902 117.634 9.8612 124.805 11.1442" stroke="#32CAFD" stroke-width="1.61646"/>
<path d="M2.95379 25.8941C12.0327 25.5524 31.2876 27.9526 35.6756 40.2877C41.1607 55.7066 49.6826 56.2803 53.4959 54.4748C58.1732 52.2601 63.8021 31.9979 75.6201 36.4577C87.438 40.9175 104.492 25.022 106.126 14.6116C107.761 4.20109 120.914 -2.23596 129.399 2.26531" stroke="#7214FF" stroke-width="1.61646"/>
</svg>
