<svg width="17" height="17" viewBox="0 0 17 17" fill="none" xmlns="http://www.w3.org/2000/svg">
<path d="M6.18806 11.7505L10.3144 11.7631C10.5717 11.764 10.78 11.9794 10.78 12.2436V14.565C10.78 14.83 10.6295 15.0698 10.3949 15.1807L6.64926 16.9395C6.56175 16.9801 6.46898 16.9999 6.37622 16.9999C6.25282 16.9999 6.12942 16.9639 6.02178 16.8926C5.83362 16.7682 5.71985 16.5537 5.71985 16.3238V12.231C5.71985 11.965 5.92989 11.7496 6.18806 11.7505ZM15.191 0C16.1904 0 16.9999 0.833891 16.9999 1.86341V3.16518C16.9999 3.66461 16.8048 4.14421 16.4582 4.49399L10.929 10.0869C10.8336 10.1843 10.704 10.2384 10.5701 10.2375L5.94056 10.223C5.79966 10.223 5.66576 10.1626 5.5695 10.0572L0.488337 4.46875C0.174156 4.12348 0 3.66731 0 3.19403V1.86431C0 0.834792 0.80952 0 1.80895 0H15.191Z" fill="#DF2DB1"/>
</svg>
